<?xml version="1.0" encoding="UTF-8"?>
<svg id="Layer_1" data-name="Layer 1" xmlns="http://www.w3.org/2000/svg" viewBox="0 0 534.34 708.66">
  <defs>
    <style>
      .cls-1 {
        fill: #44b75e;
      }

      .cls-2 {
        fill: #fab8a1;
      }

      .cls-3 {
        fill: #333;
      }

      .cls-4 {
        fill: #fee2cc;
      }

      .cls-5 {
        fill: #9faead;
      }

      .cls-6 {
        fill: #420f2a;
      }

      .cls-7 {
        fill: #006838;
      }

      .cls-8 {
        fill: #02362e;
      }

      .cls-9 {
        fill: #231f20;
      }

      .cls-10 {
        fill: #58595b;
      }

      .cls-11 {
        fill: #414042;
      }
    </style>
  </defs>
  <path class="cls-1" d="M14.77,332.58c0-139.4,113-252.4,252.4-252.4s252.4,113,252.4,252.4-113,252.4-252.4,252.4S14.77,471.98,14.77,332.58"/>
  <path class="cls-8" d="M374.45,501.06c-8.24,3.39-17.51,2.93-26.25,4.27-.82,.13-1.64,.28-2.46,.43,12.36-.16,24.83,1.38,37.04,2.57-2.44-2.31-4.96-4.56-7.64-6.67-.27-.17-.5-.38-.69-.6Z"/>
  <path class="cls-2" d="M269.2,357.35c6.22-.51,10.8-6.28,15.03-10.29-8.15,5.24-18.44,5.66-27.51,2.73,2.88,4.14,7.25,7.58,12.48,7.57Z"/>
  <path class="cls-4" d="M389.44,317.72c-3.29,3.27-6.14,6.92-9.03,10.53-.09,.14-.22,.28-.33,.42-1.21,7.38-3.76,16.57-4.03,19.43-1.18,5.28-2.34,10.65-3.58,16.04,.69-.4,1.37-.77,1.79-1.17,4.63-3.76,8.09-8.47,9.41-14.17,1.6-7.14-.46-14.34,5.61-19.94,1.91-2.29,11.67-13.02,13.25-6.87-.13,1.38-1.14,2.37-2.06,3.29-.32,.32-.64,.64-.96,.96,.26,11.57-3.07,23.96-12.5,31.33-1.03,.87-2.11,1.86-3.26,2.79-1.42,2.12-3.36,4.08-6.12,5.89-1.71,.87-4.32,3.25-6.2,2.38-.42,1.75-.85,3.49-1.29,5.24,2.49,.34,5.1,.15,7.4-.85,18.45-7.31,29.97-35.01,28.54-53.76-1.34-12.09-10.92-7.78-16.62-1.53Z"/>
  <path class="cls-9" d="M193.91,281.45c10.11-5.6,22.22-6.55,33.34-3.8-6.03-14.7-26.52-5.81-33.34,3.8Z"/>
  <path class="cls-4" d="M159.17,364.73c-3.28-1.53-6.33-3.91-8.64-6.83-11.15-5.12-15.59-19.88-15.49-31.45,.02-.35,.16-.6,.36-.79-.79-.63-1.59-1.24-2.41-1.8-.64-.47-1.44-1.51-.58-2.16,4.19-.44,8.7,3.36,11.68,6.09,9.71,7.83,1.08,13.7,6.66,22.39,2.72,4.09,5.94,7.51,9.52,10.76-1.39-5.72-2.76-11.76-4.14-18.2-.07-1.56-1.23-5.73-2.15-10.02-1.91-2.75-3.79-5.99-4.55-6.58-4.73-5.76-16.82-21.36-23.05-9.83-4.61,12.34,8.85,46.02,20.37,52.25,4.87,2.67,10.78,4.11,16.21,2.84-.64-2.34-1.27-4.73-1.89-7.21-.44,.51-1.13,.81-1.9,.53Z"/>
  <path class="cls-2" d="M148.55,354.93c-1.6-2.91-2.47-6.17-2.2-9.57-.09-6.91-3.91-13.2-8.92-17.92-.57,9.88,2.55,22.11,11.13,27.48Z"/>
  <path class="cls-9" d="M340.26,281.45c-6.82-9.62-27.31-18.51-33.34-3.8,11.12-2.74,23.23-1.79,33.34,3.8Z"/>
  <path class="cls-4" d="M374.32,290.85c-11.82-8.52-20.86-21.16-21.38-36.13-.11-.71-.11-1.35-.04-1.93-22.97-17.89-15.08-53.82-32.6-51.92-1.14,.6-2.97,.06-4.3-1.94-14.94-3.98-31.44-1.87-44.32,6.81-4.43,6.87-8.12,14.28-12.97,20.88-9.66,14.71-24.85,24.99-41.95,28.94-1.68,.42-3.63,1.21-5.25,.2-.63-.39-1.05-1.2-.9-1.93,.01-.07,.04-.14,.06-.22,0,0,0,0-.01,0,2.26-3.29,4.27-6.73,6.19-10.24-1.44,1.41-2.85,2.73-4.18,3.95-9.3,8.29-20.38,14.2-31.56,19.54-3.5,1.61-7.01,3.27-10.65,4.55-3.91,8.5-9.47,16.36-14.86,23.9-.47,6.01,1.81,12.06,2.13,18.12,.57,4.86,.69,9.72,.67,14.57,2.81,11.85,4.98,23.84,8.26,35.57,13.79,59.37,35.6,72.68,94.29,78.53,1.86,.49,4.72,.04,6.89,.47,1.3-.49,2.95-.16,4.23-.22,8.18-.26,16.26-1.93,24.29-3.47,16.36-3.01,33.79-6.98,45.93-19.16,17.17-20.69,21.96-48.23,27.65-73.71,1.02-2.64,2.24-12.99,4.21-20.19-1.27-5.77,1.26-21.72,1.34-24.72,.02-3.06,1.91-8.4-1.17-10.23Zm-124.96,47.48c1.19-2.31,3.48-1.3,3.78,.98,.6,8.29,10.21,10.22,17.02,9.12,6.78-.92,11.84-4.44,17.64-7.03,1.39,.08,2.13,1.81,1.19,2.84-1.47,1.83-2.5,3.98-3.91,5.85-3.82,5.93-10.34,10.58-17.67,9.6-6.86-1.36-13.89-6.22-16.33-12.92-1.98-2.28-3.17-5.59-1.71-8.44Zm-59.61-51.69c-2.95-.94-.33-4.7,.43-6.5,5.21-7.99,14.21-14.5,23.89-15.07,7.16-.18,15.57,3.65,17.11,11.25,.25,1.97,.17,4.72-1.99,5.56-4.91-.03-10.12-2.02-14.95-1.55-8.94-.21-16.68,2.96-24.49,6.31Zm19.11,42.78c-12.1-3.44-5-21.29,5.86-20.03,3.9,.17,5.6,4.28,5.92,7.66,1.07,6.6-4.8,13.91-11.78,12.36Zm115.45,0c-6.98,1.54-12.85-5.77-11.78-12.36,.32-3.38,2.01-7.5,5.92-7.66,10.86-1.26,17.96,16.59,5.86,20.03Zm19.11-42.78c-7.81-3.35-15.56-6.52-24.49-6.31-4.83-.47-10.04,1.52-14.95,1.55-2.16-.84-2.24-3.59-1.99-5.56,1.54-7.59,9.94-11.43,17.11-11.25,9.68,.56,18.69,7.08,23.89,15.07,.76,1.8,3.38,5.56,.43,6.5Z"/>
  <path class="cls-10" d="M421.22,248.33c-.26,7.16-1.92,14.52-5.98,20.62,.02-.5,.05-1.01,.07-1.49,.22-3.82-.55-7.57-1.78-11.15-.38-1.03-.96-2.33-2.16-2.55-1.06-.17-1.56,1.11-1.71,1.92,.07,12.91-.87,25.98-6.44,37.93-1.59,3.87-3.41,7.62-5.43,11.27-.14,.26-.19,.58-.22,.87-5.96,1.25-12.09,6.56-16.44,12.28-.34,.43-.65,.87-.96,1.3-.14-.26-.31-.41-.53-.55,.94-8.24,.5-19.59,.46-22.64-.24-3.2,1.3-7.79-2.07-9.97-9.69-7.23-17.09-17.43-18.6-29.54,5.34,2.79,11.92,4.78,20.21,5.58,1.32,.07,2.69,.02,4.01-.19,2.81-.17,2.74-4.57-.05-4.61-12.16-1.78-25.02-5.05-32.62-15.53-5.62-6.97-8.36-15.19-10.43-23.87-2.07-7.57-3.87-16.63-11.06-21.08-2.07-1.18-4.57-1.54-6.9-.94-.38,.1-.87,.29-1.32,.53-8.53-15.09-26.94-19.42-40.91-8.72-9.3,6.75-14.52,17.35-20.31,26.94-9.57,17.28-25,31.37-44.47,36.17,4.18-4.83,8.32-9.64,11.18-15.41,.67-1.8,3-4.35,2.86-6.39,3.99-5.91,6.8-12.26,6.66-18.56,.24-.79-1.03-1.06-1.15-.29-4.61,5.91-7.55,13.05-12.5,18.89-7.55,9.95-17.55,18.56-28.48,24.88-6.32,3.63-12.81,6.9-19.35,10.12-.34,.22-.75,.46-1.2,.67,1.18-3.61,2.04-7.31,2.4-11.18,.12-1.42,.89-14.06-2.19-9.23-2.67,7.14-3.53,14.9-6.73,21.9-3.77,9.25-9.9,17.86-15.14,26.42,.22,8.94,1.27,18.8,2.57,28.39-.41,.1-.72,.31-.96,.65-2.96-4.16-6.8-8.17-10.77-11.08-2.45-1.8-4.9-3.2-7.23-3.92,.05-.31,.02-.62-.14-.96-2.09-4.57-4.23-9.11-5.58-13.96-3.85-12.23-3.61-24.85-2.04-37.57,0-.87,.82-7.72-1.08-5.58-3.32,4.81-4.95,10.65-5.43,16.85-.67-1.97-1.3-3.97-1.9-5.96-3.58-24.49,4.47-49.68,20.48-68.69,36.17-45.86,86.55-79.08,147.15-67.49,17.5,3.77,35.6,11.39,47.4,25.36,1.56,2.09,2.57,3.87,3.77,6.39,.29,.5,.55,1.06,.84,1.56-.75,1.13-.77,3.03,.89,3.2,4.23-.79,7.93-3.63,12.19-4.61,6.49-1.99,13.8-2.09,20.41-.36,36.08,9.69,49.99,60.09,48.72,93.4Z"/>
  <path class="cls-2" d="M388.26,342.66c-.66,5.52-1.02,10.36-2.84,14.63,7.16-6.8,11.3-19.26,11.7-28.59-3.82,4.08-7.29,8.6-8.86,13.96Z"/>
  <path class="cls-8" d="M183.11,506.41c-2.99-.46-5.98-.88-8.97-1.27-6.05-.66-12.22-1.8-17.56-4.72-.21,.32-.48,.63-.86,.91-4.91,4.1-9.46,8.53-13.7,13.23,11.87-3.76,24.1-6.42,36.48-7.71,1.53-.14,3.06-.29,4.61-.44Z"/>
  <path class="cls-5" d="M233.86,521.06c1.05-1.78,1.84-4.19,3.41-5.63-1.28-1.6-2.63-3.15-4-4.65-.61,.93-1.4,1.84-1.72,2.68-6.19,10.51-10.18,21.6-12.21,33.47-1.4,9.23-6.02,33.24,.17,40.06,4.26,2.35,2.13-5.94,2.55-7.79-.15-7.41-.16-14.84,1.12-22.16,2.24-12.32,5.27-24.63,10.67-35.98Z"/>
  <path class="cls-3" d="M280.08,195.52c-1.49,1.53-2.83,3.16-4.12,4.84,11.05-6.54,25.65-9.84,37.58-4.97-9.61-10.01-22.84-10.46-33.46,.14Z"/>
  <path class="cls-7" d="M427.99,585.91c-7.86,4.18-15.86,8.1-23.99,11.78-31.17,14.28-65.06,21.92-99.32,23.94-45.74,3.03-92.03-.12-136.45-11.75-21.94-5.6-44.15-12.71-62.64-26.22,.46-.77,.77-1.63,.89-2.4,1.27-4.66,2.67-9.3,4.33-13.84,6.63-17.98,15.98-35,28.36-49.59,5.07-1.95,10.19-3.7,15.46-5,11.9-2.88,24.23-4.86,36.56-5.02,4.18,.77,8.32,1.66,12.45,2.76,7.23,1.8,14.13,4.28,20.82,7.62-1.83,3.85-3.29,7.52-3.8,8.7-4.09,10.31-16.1,63.33,.02,64.9,10.46-.19,5.29-13.22,5.91-19.78,.05-10.94,2.07-21.78,4.81-32.3,1.51-5.65,3.39-11.32,5.67-16.73,.17-.89,1.39-2.96,2.16-4.86,.22,.34,.46,.62,.67,.96,.31,.5,1.03,.67,1.56,.41,1.83-1.37-1.03-4.33-1.44-6.01-1.8-3.89-5.02-6.87-8.32-9.52-.65-.5-1.44-1.01-2.31-.79-2.67,1.15-.22,3.53,1.25,4.86-1.13,1.08-2.4,2.98-3.65,5.19-6.73-5.24-25.91-8.99-31.75-10.55-18.2-4.57-43.07-.58-48.1-24.16-2.31-11.2,7.31-17.62,14.71-24.04,.65-.7,1.03-1.61,1.11-2.55,.22-4.18,.19-8.36,.67-12.52,1.32-11.34,6.3-22.09,13.99-30.53,3.68,6.13,7.88,11.37,12.86,15.84,5.7,5.19,12.43,9.37,20.48,12.74,.22,.43,.46,.87,.65,1.3-.89,1.83-1.59,3.73-2.55,5.5-.34,.7-.65,1.42-.99,2.12-.62-.19-1.35-.14-1.92,.19-2.88,1.56-3.8,5.14-4.57,8.1-6.06,28.75,31.41,27.69,48.02,39.03,1.51,1.23,2.86,2.57,4.09,4.04,4.11,4.83,6.87,10.77,10.05,16.22,.02,.89,.19,1.75,.84,2.36,2.21,1.11,2.93-2.57,3.82-3.97,1.37-2.96,2.6-5.38,4.64-8.1,1.68-2.14,3.51-3.99,5.5-5.65h.02c12.64-10.55,30.77-12.38,44.68-20.94,5.41-3.61,10.02-8.58,12.93-14.42,.75-3.03,6.2-12.23,1.92-13.68-1.13-.38-2.57,.14-3.08,1.3-.24,.84-.53,1.68-.79,2.52-.31-6.03-2.72-12.11-5.94-17.07,6.83-3.03,13.22-7.02,18.53-12.23,1.35-1.56,2.6-3.15,3.8-4.78,2.28-3.12,4.35-6.37,6.2-9.73,13.56,9.23,18.56,23.39,15.58,39.73-.91,3.2,1.95,5.41,3.75,7.64,5.67,6.8,12.93,15.05,10.12,24.61-3.56,12.64-17.95,16.61-29.66,16.97-8.39,.79-16.75,2.07-24.83,4.57-3.44,1.11-20.62,6.25-25.57,11.27-.77-1.39-1.59-2.79-2.4-4.13-.46-.65-.91-1.42-1.51-2,1.18-1.32,2.19-2.67,2.64-4.13,.02-.5-.31-1.06-.82-1.2-5.26-.26-8.36,5.94-10.84,9.78-.82,2.07-1.83,3.77-2.55,6.06-.14,.6,.24,1.25,.77,1.51,.55,.26,1.3,.14,1.68-.34,.26-.38,.5-.77,.77-1.18,.1,.14,.19,.26,.29,.38,9.04,13.12,11.97,29.4,11.99,45.14,.05,4.33-.05,9.3-.38,13.8-.17,4.18-1.15,9.66,3.17,12.16,2.55,1.59,5.72,.31,7.67-1.66,9.66-11.3,3.15-35.45-.07-48.72-1.87-7.21-4.71-14.47-8.2-21.32,.43-.19,.87-.41,1.25-.6,2.28-1.18,4.57-2.33,6.92-3.34,6.01-2.57,12.33-4.78,18.77-6.51,16.51-1.49,33.19,.79,49.73,2.52,20.36,20.43,32.54,47.74,42.62,74.68,.05,.24,.17,.43,.26,.65Z"/>
  <path class="cls-5" d="M315.3,582.65c5.61-20.33-5.19-52.61-15.5-70.48-.2-.22-.38-.45-.54-.71-.72,.8-1.38,1.62-1.88,2.47-.49,.59-.92,1.22-1.36,1.84,2.18,1.21,3.95,5.33,5.09,6.97,6.29,12.45,8.72,26.48,9.28,40.32,.27,7.1,.09,14.23-.27,21.33,.89,4.09,4.47,.58,5.17-1.74Z"/>
  <path class="cls-4" d="M216.91,474.15c13.69,7.83,33.05,7.18,42.71,21.32,2.36,3.24,4.57,6.76,5.76,10.61,2.62-6.21,7.98-11.19,13.57-14.89,11.08-8.42,25.6-10.2,37.67-16.52-.45-.34-.81-.81-.93-1.39-1.48-6.32-3.56-18.41-2.12-27.59-14.07,13.87-31.62,27.72-52.24,27.21-12.43-1.2-24.84-5.85-33.85-14.72-2.41-2.6-5.23-4.95-7.86-7.45,.03,5.81-1.01,11.73-1.74,17.38-.51,1.42-.49,4-.96,6.04Z"/>
  <path class="cls-8" d="M319.46,466.64c-.05,1.63,.98,3.95,1,5.81,.65-.43,1.31-.85,1.94-1.31,3.82-3.05,6.72-6.81,8.93-10.97,.29-1.08,.54-2.16,.67-3.26,.71-6.99-2.12-13.87-5.71-19.74-1.65,.68-3.31,1.31-4.99,1.88-.1,.32-.23,.64-.4,.93-3.14,8.48-2.68,17.88-1.42,26.66Z"/>
  <path class="cls-8" d="M210.87,445.12c-.59,1.23-1.22,2.46-1.83,3.68-1.94,5.8-3.49,12.38-.58,18.19,1.18,1.51,2.52,2.78,3.92,3.96,.13-1.26,.23-2.49,.37-3.85,.68-8.13,2.29-16.87,.15-24.79-.11-.22-.21-.46-.31-.68-.59,1.15-1.2,2.3-1.71,3.49Z"/>
  <path class="cls-2" d="M238.14,463.66c23.01,13.15,50.14-.56,67.75-16.66,2.1-1.72,3.96-3.49,5.8-5.25-8.1,1.88-16.26,3.54-24.43,4.99-5.65,.68-11.8,2.31-17.47,1.42-.5,.29-1.05,.5-1.66,.46-20.69-1.56-37.02-4.22-50.17-8.57,.16,.45,.31,.9,.44,1.36,2.18,3.47,3.98,7.19,6.47,10.46,3.68,4.68,8.28,8.6,13.27,11.78Z"/>
  <path class="cls-6" d="M162.75,377.37s.05-.02,.07-.02c-.01,0-.02,0-.03,0-.01,0-.03,0-.04,.01Z"/>
  <path class="cls-6" d="M162.93,377.31s-.07,.02-.11,.03c.05-.01,.1-.03,.15-.04,0,0-.01,0-.02,0,0,0,0,0,0,0,0,0-.01,0-.02,0Z"/>
  <path class="cls-11" d="M229.69,281.85c2.16-.84,2.24-3.59,1.99-5.56-1.54-7.59-9.94-11.43-17.11-11.25-9.68,.56-18.69,7.08-23.89,15.07-.76,1.8-3.38,5.56-.43,6.5,7.81-3.35,15.56-6.52,24.49-6.31,4.83-.47,10.04,1.52,14.95,1.55Zm-35.78-.4c6.82-9.62,27.31-18.51,33.34-3.8-11.12-2.74-23.23-1.79-33.34,3.8Z"/>
  <path class="cls-6" d="M215.22,309.36c-10.86-1.26-17.96,16.59-5.86,20.03,6.98,1.54,12.85-5.77,11.78-12.36-.32-3.38-2.01-7.5-5.92-7.66Z"/>
  <path class="cls-11" d="M304.49,281.85c4.91-.03,10.12-2.02,14.95-1.55,8.94-.21,16.68,2.96,24.49,6.31,2.95-.94,.32-4.7-.43-6.5-5.21-7.99-14.21-14.5-23.89-15.07-7.17-.18-15.57,3.65-17.11,11.25-.25,1.97-.17,4.72,1.99,5.56Zm35.78-.4c-10.11-5.6-22.22-6.55-33.34-3.8,6.03-14.7,26.52-5.81,33.34,3.8Z"/>
  <path class="cls-6" d="M318.96,309.36c-3.9,.17-5.6,4.28-5.92,7.66-1.07,6.6,4.8,13.91,11.78,12.36,12.1-3.44,5-21.29-5.86-20.03Z"/>
  <path class="cls-6" d="M267.91,359.66c7.33,.99,13.85-3.67,17.67-9.6,1.41-1.87,2.45-4.02,3.91-5.85,.94-1.03,.19-2.76-1.19-2.84-5.8,2.59-10.86,6.11-17.64,7.03-6.81,1.1-16.42-.83-17.02-9.12-.3-2.28-2.6-3.29-3.78-.98-1.46,2.85-.27,6.16,1.71,8.44,2.44,6.7,9.47,11.56,16.33,12.92Zm16.32-12.6c-4.23,4.01-8.81,9.78-15.03,10.29-5.23,0-9.6-3.43-12.48-7.57,9.07,2.94,19.36,2.52,27.51-2.73Z"/>
  <path class="cls-9" d="M432.64,584.56c-.68-6.28-4.3-11.93-6.3-17.89-3.65-9.36-7.79-18.55-12.63-27.36-4.76-8.69-10.52-16.78-16.88-24.36-5.22-5.76-10.36-12.47-17.08-16.56,8.47-4.96,14.47-14.64,12.83-24.61-2.12-9.75-8.98-18.11-15.88-24.98,2.29-15.66,.87-30.14-12.64-40.42-1.1-.8-2.84-2.42-4.67-3.68,3.97-8.16,6.94-16.85,9.39-25.72,16.13,2.9,28.93-11.85,35.11-25.12,5.88-13.23,12.98-31.34,4.32-44.7-1.56-1.66-3.25-2.68-5.01-3.23,1.88-3.3,3.57-6.72,5.18-10.15,3.24-6.81,5.48-14.09,6.43-21.57,2.55-2.95,5.09-5.91,6.9-9.4,9.24-17.88,4.89-39.63,.39-58.33-8-27.54-27.48-58.89-59.57-58.59-6.44,.35-13.81,1.55-19.37,5.21-.4-1.57-1.08-3.11-1.61-3.98-8.32-13.9-23.92-21.71-38.59-27.33-44.72-15.3-95.51-2.5-130.85,27.97-26.3,22.86-54.67,50.27-58.49,86.74-.53,6.45-.61,13.13,.72,19.5,1.07,6.71,3.36,13.16,7.06,18.7,1.05,11.37,5.21,22.98,10.18,31.46-.36,.02-.71,.06-1.05,.13-23.33,5.74-4.24,45.55,3.82,58.31,5.13,8.05,14.4,13.07,23.91,13.28,1.59,.1,3.18-.08,4.69-.59,0,0,.01,0,.02,0,0,0,0,0,0,0,.51-.15,1.02-.31,1.52-.52,3.06,10.4,6.4,19.39,10.39,27.12-4.29,2.59-9.16,12.42-10.62,15.09-4.99,9.57-4.16,20.44-5.64,30.74-5.86,4.4-12.13,9.14-15.35,15.91-4.81,10.82-.46,23.81,8.31,31.27-23.05,19.84-39.23,47.03-48.55,75.81-.79,2.5-1.55,5.02-2.13,7.59-.12,.54-.24,1.18-.25,1.84-.38,.24-.7,.63-.88,1.25,.01,3.42,3.8,5.33,6.16,7.32,35.89,24.57,105.35,36.28,148.81,37.36,60.71,2.43,123.74-5.86,176.49-37.83,1.45-.97,1.35-2.59,.54-3.7,.56-.44,.95-1.1,.88-1.99Zm-49.85-76.23c-12.21-1.19-24.68-2.73-37.04-2.57,.82-.14,1.64-.3,2.46-.43,8.74-1.34,18.01-.88,26.25-4.27,.2,.22,.42,.43,.69,.6,2.68,2.11,5.2,4.36,7.64,6.67Zm23.28-189.08c1.43,18.75-10.09,46.45-28.54,53.76-2.3,1-4.91,1.19-7.4,.85,.44-1.74,.87-3.49,1.29-5.24,1.88,.87,4.49-1.51,6.2-2.38,2.76-1.81,4.71-3.77,6.12-5.89,1.14-.93,2.23-1.92,3.26-2.79,9.43-7.36,12.77-19.76,12.5-31.33,.32-.32,.64-.65,.96-.96,.93-.92,1.93-1.9,2.06-3.29-1.58-6.15-11.34,4.58-13.25,6.87-6.07,5.6-4.01,12.8-5.61,19.94-1.32,5.71-4.78,10.41-9.41,14.17-.42,.4-1.11,.77-1.79,1.17,1.24-5.39,2.39-10.76,3.58-16.04,.27-2.86,2.82-12.05,4.03-19.43,.12-.14,.24-.28,.33-.42,2.9-3.61,5.74-7.26,9.03-10.53,5.7-6.25,15.28-10.56,16.62,1.53Zm-20.65,38.04c1.82-4.26,2.19-9.11,2.84-14.63,1.56-5.37,5.04-9.89,8.86-13.96-.4,9.33-4.55,21.79-11.7,28.59Zm-255.59-65.45c-3.83-12.23-3.61-24.85-2.04-37.56,.02-.87,.82-7.71-1.08-5.58-3.3,4.8-4.95,10.63-5.42,16.84-.68-1.97-1.31-3.96-1.9-5.97-3.59-24.48,4.47-49.67,20.48-68.69,36.18-45.85,86.55-79.07,147.14-67.48,17.49,3.76,35.6,11.4,47.4,25.35,1.57,2.09,2.57,3.88,3.78,6.4,.28,.5,.54,1.05,.84,1.57-.76,1.12-.77,3.03,.88,3.18,4.23-.79,7.94-3.62,12.19-4.6,6.48-2,13.8-2.09,20.4-.37,36.08,9.7,50.01,60.09,48.73,93.41-.28,7.15-1.93,14.52-5.99,20.61,.02-.5,.06-.99,.07-1.49,.21-3.81-.56-7.56-1.79-11.16-.37-1.01-.95-2.33-2.16-2.54-1.05-.18-1.55,1.11-1.7,1.92,.07,12.92-.87,25.99-6.45,37.93-1.57,3.87-3.41,7.61-5.43,11.27-.13,.28-.19,.58-.22,.88-6.41,1.34-12.99,7.37-17.39,13.57-.14-.25-.32-.41-.52-.53,.92-8.26,.51-19.59,.45-22.64-.25-3.21,1.28-7.8-2.09-9.98-9.67-7.24-17.07-17.44-18.6-29.55,5.35,2.79,11.93,4.79,20.21,5.58,1.34,.08,2.7,.04,4.03-.18,2.81-.17,2.73-4.57-.06-4.63-12.17-1.76-25.01-5.03-32.63-15.52-5.61-6.97-8.34-15.2-10.42-23.87-2.07-7.57-3.87-16.64-11.05-21.07-2.08-1.2-4.57-1.56-6.89-.95-.4,.1-.87,.28-1.34,.52-8.53-15.09-26.94-19.42-40.9-8.72-9.3,6.75-14.51,17.35-20.32,26.95-9.55,17.26-25,31.35-44.46,36.16,4.18-4.83,8.32-9.63,11.19-15.41,.67-1.8,3-4.36,2.84-6.39,3.99-5.9,6.8-12.26,6.67-18.55,.24-.8-1.03-1.07-1.16-.3-4.6,5.92-7.53,13.06-12.48,18.89-7.55,9.96-17.55,18.57-28.49,24.88-6.32,3.63-12.83,6.89-19.36,10.13-.32,.22-.74,.44-1.2,.66,1.19-3.6,2.04-7.31,2.4-11.16,.12-1.44,.9-14.07-2.18-9.24-2.67,7.15-3.52,14.9-6.72,21.9-3.77,9.26-9.91,17.84-15.14,26.4,.21,8.95,1.27,18.79,2.58,28.39-.41,.09-.74,.31-.98,.65-4.78-6.72-11.89-13.07-17.99-15,.04-.31,.01-.63-.16-.98-2.09-4.55-4.21-9.1-5.57-13.96Zm183.72-96.45c-11.94-4.87-26.53-1.57-37.58,4.97,1.29-1.68,2.63-3.31,4.12-4.84,10.62-10.6,23.85-10.14,33.46-.14Zm-166.8,173.19c-11.52-6.23-24.98-39.91-20.37-52.25,6.23-11.53,18.32,4.07,23.05,9.83,.76,.59,2.64,3.83,4.55,6.58,.92,4.28,2.08,8.46,2.15,10.02,1.38,6.45,2.75,12.49,4.14,18.2-3.58-3.25-6.8-6.67-9.52-10.76-5.58-8.7,3.05-14.56-6.66-22.39-2.98-2.73-7.48-6.54-11.68-6.09-.86,.65-.06,1.68,.58,2.16,.82,.56,1.62,1.16,2.41,1.8-.2,.19-.34,.44-.36,.79-.1,11.57,4.34,26.33,15.49,31.45,2.31,2.92,5.36,5.3,8.64,6.83,.77,.28,1.45-.01,1.9-.53,.62,2.48,1.25,4.87,1.89,7.21-5.43,1.27-11.35-.17-16.21-2.84Zm1.81-13.65c-8.58-5.38-11.69-17.61-11.13-27.48,5.02,4.72,8.83,11.01,8.92,17.92-.27,3.4,.6,6.66,2.2,9.57Zm18.63,8.6c-3.28-11.73-5.45-23.72-8.26-35.57,.02-4.85-.1-9.71-.67-14.57-.32-6.06-2.6-12.11-2.13-18.12,5.38-7.53,10.95-15.39,14.86-23.9,3.64-1.28,7.15-2.95,10.65-4.55,11.18-5.34,22.26-11.25,31.56-19.54,1.33-1.22,2.74-2.54,4.18-3.95-1.92,3.5-3.93,6.95-6.19,10.24,0,0,0,0,.01,0-.02,.07-.05,.14-.06,.22-.15,.73,.27,1.54,.9,1.93,1.62,1.01,3.57,.23,5.25-.2,17.1-3.94,32.29-14.22,41.95-28.94,4.85-6.59,8.54-14,12.97-20.88,12.88-8.68,29.38-10.79,44.32-6.81,1.33,1.99,3.15,2.54,4.3,1.94,17.52-1.9,9.63,34.04,32.6,51.92-.07,.58-.07,1.22,.04,1.93,.52,14.97,9.56,27.6,21.38,36.13,3.08,1.83,1.19,7.17,1.17,10.23-.09,3-2.61,18.95-1.34,24.72-1.97,7.2-3.18,17.55-4.21,20.19-5.68,25.49-10.48,53.02-27.65,73.71-12.14,12.19-29.56,16.15-45.93,19.16-8.03,1.54-16.1,3.21-24.29,3.47-1.28,.06-2.93-.26-4.23,.22-2.16-.42-5.03,.02-6.89-.47-58.68-5.85-80.5-19.16-94.29-78.53Zm159.1,73.63c3.6,5.87,6.42,12.75,5.71,19.74-.13,1.1-.38,2.18-.67,3.26-2.21,4.16-5.11,7.91-8.93,10.97-.63,.46-1.29,.89-1.94,1.31-.02-1.85-1.05-4.18-1-5.81-1.25-8.79-1.71-18.19,1.42-26.66,.17-.29,.3-.61,.4-.93,1.68-.58,3.35-1.2,4.99-1.88Zm-106.67,13.58c2.63,2.5,5.45,4.85,7.86,7.45,9,8.87,21.42,13.52,33.85,14.72,20.63,.51,38.18-13.33,52.24-27.21-1.44,9.17,.64,21.27,2.12,27.59,.12,.58,.48,1.05,.93,1.39-12.07,6.31-26.59,8.1-37.67,16.52-5.59,3.7-10.95,8.69-13.57,14.89-1.19-3.86-3.4-7.37-5.76-10.61-9.66-14.14-29.02-13.49-42.71-21.32,.47-2.04,.45-4.62,.96-6.04,.73-5.65,1.76-11.58,1.74-17.38Zm-1.65-10.68c13.14,4.35,29.48,7.02,50.17,8.57,.61,.03,1.16-.17,1.66-.46,5.67,.89,11.82-.74,17.47-1.42,8.18-1.45,16.34-3.11,24.43-4.99-1.84,1.76-3.7,3.53-5.8,5.25-17.61,16.1-44.73,29.81-67.75,16.66-4.99-3.19-9.6-7.1-13.27-11.78-2.49-3.27-4.29-6.99-6.47-10.46-.13-.46-.28-.9-.44-1.36Zm-5.22,27.05c-.14,1.36-.24,2.6-.37,3.85-1.4-1.18-2.74-2.45-3.92-3.96-2.91-5.81-1.36-12.4,.58-18.19,.61-1.23,1.24-2.45,1.83-3.68,.51-1.19,1.12-2.34,1.71-3.49,.11,.23,.2,.46,.31,.68,2.14,7.91,.53,16.65-.15,24.79Zm-57.03,34.22c.38-.27,.66-.58,.86-.91,5.34,2.92,11.51,4.06,17.56,4.72,2.99,.38,5.99,.81,8.97,1.27-1.54,.15-3.08,.3-4.61,.44-12.39,1.29-24.61,3.95-36.48,7.71,4.23-4.7,8.79-9.13,13.7-13.23Zm248.3,96.36c-31.18,14.27-65.07,21.92-99.34,23.95-45.74,3.02-92.02-.11-136.45-11.76-21.94-5.59-44.14-12.72-62.63-26.22,.45-.76,.77-1.64,.89-2.4,1.27-4.67,2.66-9.3,4.34-13.85,6.63-17.99,15.99-34.98,28.35-49.59,5.07-1.93,10.2-3.68,15.47-5,11.9-2.87,24.23-4.85,36.54-5.02,4.19,.79,8.35,1.68,12.47,2.78,0,0-.02,0-.02,0,7.25,1.79,14.15,4.28,20.83,7.62-1.83,3.85-3.31,7.51-3.81,8.7-4.07,10.3-16.09,63.34,.03,64.91,10.46-.21,5.28-13.24,5.93-19.79,.04-10.93,2.06-21.77,4.8-32.32,1.51-5.64,3.38-11.31,5.66-16.72,.18-.89,1.41-2.96,2.17-4.85,.21,.32,.46,.62,.66,.94,.33,.52,1.04,.68,1.57,.4,1.83-1.35-1.02-4.32-1.44-6-1.8-3.88-5.02-6.88-8.31-9.51-.67-.52-1.45-1.02-2.33-.8-2.67,1.15-.19,3.53,1.27,4.86-1.15,1.07-2.42,2.96-3.66,5.18-6.73-5.25-25.91-8.99-31.75-10.55-18.21-4.56-43.08-.57-48.1-24.16-2.3-11.2,7.31-17.63,14.7-24.04,.65-.7,1.05-1.6,1.12-2.55,.21-4.18,.2-8.35,.66-12.52,1.33-11.34,6.3-22.08,14-30.53,7.88,13.16,18.25,22.29,33.33,28.58,.23,.44,.46,.87,.65,1.31-.89,1.81-1.59,3.72-2.54,5.5-.35,.69-.66,1.41-1,2.11-.62-.2-1.34-.14-1.93,.19-2.88,1.56-3.78,5.16-4.55,8.11-6.06,28.73,31.4,27.67,48.02,39.03,6.55,5.23,9.99,13.15,14.13,20.26,.03,.88,.2,1.75,.85,2.35,2.2,1.12,2.92-2.58,3.8-3.97,1.39-2.94,2.59-5.38,4.66-8.1,12.35-15.78,34.1-16.68,50.2-26.57,5.4-3.61,10.03-8.59,12.93-14.42,.75-3.02,6.21-12.25,1.94-13.67-1.15-.38-2.59,.14-3.09,1.29-.24,.85-.51,1.69-.8,2.52-.31-6.02-2.7-12.09-5.92-17.07,6.82-3.03,13.21-7,18.51-12.23,3.9-4.51,7.18-9.39,10.02-14.52,13.55,9.24,18.54,23.39,15.56,39.73-.9,3.21,1.96,5.42,3.76,7.66,5.68,6.8,12.93,15.04,10.12,24.6-3.57,12.65-17.96,16.61-29.67,16.98-8.39,.78-16.75,2.06-24.81,4.55-3.44,1.11-20.64,6.25-25.58,11.28-.78-1.4-1.58-2.78-2.4-4.12-.47-.65-.92-1.43-1.51-2,1.17-1.31,2.18-2.65,2.63-4.13,.03-.52-.3-1.05-.81-1.2-5.25-.28-8.37,5.93-10.85,9.79-.82,2.06-1.82,3.77-2.54,6.04-.15,.6,.23,1.26,.76,1.52,.54,.26,1.29,.14,1.67-.34,.26-.38,.52-.78,.78-1.17,.09,.13,.19,.26,.3,.38,9.03,13.12,11.96,29.39,11.99,45.14,.05,4.33-.05,9.29-.38,13.79-.16,4.19-1.14,9.67,3.17,12.17,2.56,1.57,5.72,.3,7.66-1.67,9.67-11.28,3.17-35.45-.06-48.72-1.87-7.2-4.72-14.46-8.2-21.32,.44-.18,.87-.39,1.25-.6,2.28-1.17,4.57-2.33,6.92-3.33,6.03-2.58,12.34-4.79,18.78-6.51,16.52-1.49,33.19,.8,49.73,2.51,20.36,20.44,32.55,47.75,42.61,74.68,.05,.26,.17,.45,.27,.66-7.86,4.18-15.87,8.09-23.98,11.78Zm-181.96-18.49c-.42,1.85,1.71,10.14-2.55,7.79-6.19-6.82-1.57-30.83-.17-40.06,2.03-11.88,6.01-22.97,12.21-33.47,.32-.83,1.11-1.75,1.72-2.68,1.37,1.5,2.73,3.05,4,4.65-1.57,1.44-2.37,3.85-3.41,5.63-5.4,11.35-8.43,23.66-10.67,35.98-1.29,7.32-1.28,14.75-1.12,22.16Zm88.33-16.13c-.55-13.84-2.99-27.87-9.28-40.32-1.14-1.64-2.91-5.76-5.09-6.97,.44-.62,.87-1.25,1.36-1.84,.5-.85,1.16-1.66,1.88-2.47,.16,.25,.34,.49,.54,.71,10.3,17.86,21.1,50.14,15.5,70.48-.7,2.33-4.29,5.83-5.17,1.74,.36-7.09,.55-14.23,.27-21.33Z"/>
  <path class="cls-6" d="M162.93,377.31s.01,0,.02,0c0,0,0,0,0,0,0,0,0,0,0,0,0,0-.01,0-.02,0Z"/>
  <path class="cls-11" d="M406.22,243.91c-4.28-4.06-8.56-8.12-12.84-12.21,5.55,12.57,4.16,26.97,2.24,40.57-1.47,10.46-3.24,20.96-7.09,30.79-2.04,5.19-4.64,10.12-7.4,14.97-.34,.43-.65,.87-.96,1.3-.14-.26-.31-.41-.53-.55,.94-8.24,.5-19.59,.46-22.64-.24-3.2,1.3-7.79-2.07-9.97-9.69-7.23-17.09-17.43-18.6-29.54,5.34,2.79,11.92,4.78,20.21,5.58,1.32,.07,2.69,.02,4.01-.19,2.81-.17,2.74-4.57-.05-4.61-12.16-1.78-25.02-5.05-32.62-15.53-5.62-6.97-8.36-15.19-10.43-23.87-2.07-7.57-3.87-16.63-11.06-21.08-2.07-1.18-4.57-1.54-6.9-.94-.38,.1-.87,.29-1.32,.53-8.53-15.09-26.94-19.42-40.91-8.72-9.3,6.75-14.52,17.35-20.31,26.94-9.57,17.28-25,31.37-44.47,36.17,4.18-4.83,8.32-9.64,11.18-15.41,.67-1.8,3-4.35,2.86-6.39,3.99-5.91,6.8-12.26,6.66-18.56,.24-.79-1.03-1.06-1.15-.29-4.61,5.91-7.55,13.05-12.5,18.89-7.55,9.95-17.55,18.56-28.48,24.88-6.32,3.63-12.81,6.9-19.35,10.12-.34,.22-.75,.46-1.2,.67,1.18-3.61,2.04-7.31,2.4-11.18,.12-1.42,.89-14.06-2.19-9.23-2.67,7.14-3.53,14.9-6.73,21.9-3.77,9.25-9.9,17.86-15.14,26.42,.22,8.94,1.27,18.8,2.57,28.39-.41,.1-.72,.31-.96,.65-2.96-4.16-6.8-8.17-10.77-11.08-2.16-12.84-2.98-25.93-1.66-38.87,1.73-16.58,7.11-32.95,16.92-46.44-6.54,5.96-13.08,11.92-19.61,17.86,1.73-10.98,6.61-21.01,12.5-30.43,16.27-26.03,38.55-48.82,65.98-62.54,27.45-13.75,60.26-17.83,89.32-8.03,4.71,1.61,9.35,3.56,13.39,6.44,6.8,4.83,11.61,11.97,15.86,19.16,11.1-4.95,23.03-.94,33.55,5.14,24.35,14.13,39.42,42.86,37.18,70.93Z"/>
  <path class="cls-8" d="M253.71,497.72c-15.38-3.05-30.55-7.14-45.38-12.23-6.15-2.09-12.43-4.49-17.04-9.06-4.64-4.61-7.11-11.03-8.17-17.5-1.9-11.8,.87-24.25,7.38-34.23,5.7,5.19,12.43,9.37,20.48,12.74,.22,.43,.46,.87,.65,1.3-.89,1.83-1.59,3.73-2.55,5.5-.34,.7-.65,1.42-.99,2.12-.62-.19-1.35-.14-1.92,.19-2.88,1.56-3.8,5.14-4.57,8.1-6.06,28.75,31.41,27.69,48.02,39.03,1.51,1.23,2.86,2.57,4.09,4.04Z"/>
  <path class="cls-8" d="M360.36,448.86c-1.42,13.08-11.01,24.13-22.38,30.74s-24.44,9.49-37.3,12.28c-7.6,1.66-14.78,4.86-22.09,6.71,12.64-10.55,30.77-12.38,44.68-20.94,5.41-3.61,10.02-8.58,12.93-14.42,.75-3.03,6.2-12.23,1.92-13.68-1.13-.38-2.57,.14-3.08,1.3-.24,.84-.53,1.68-.79,2.52-.31-6.03-2.72-12.11-5.94-17.07,6.83-3.03,13.22-7.02,18.53-12.23,1.35-1.56,2.6-3.15,3.8-4.78,6.54,8.68,10.86,18.96,9.71,29.56Z"/>
  <path class="cls-6" d="M243.94,403.33c17.64,.78,35.59-2.91,52.05-9.16,4.46-2.07,9.95-4.23,14.45-6.72,.5-.31,.85-.75,1.12-1.24,1.37,.7,2.51,1.33,3.08,1.88,1.52,.56,3.1-1,2.57-2.59-.31-.92-1.14-1.39-1.69-2.15-3.05-3.57-7.94-9.03-13.2-7.4-2.94,2.31-1.04,4.52,2.08,6.49-2.82,1.81-5.74,3.48-8.73,4.95-9.17,4.92-18.85,7.44-29.13,9.43-10.99,.92-21.78,1.55-32.87,.03-3.96-2.99-8.5,.89-4.64,4.42,4.69,1.7,9.94,1.75,14.92,2.07Z"/>
</svg>